<?xml version="1.0" standalone="no"?>
<!DOCTYPE svg PUBLIC "-//W3C//DTD SVG 20010904//EN"
 "http://www.w3.org/TR/2001/REC-SVG-20010904/DTD/svg10.dtd">
<svg version="1.0" xmlns="http://www.w3.org/2000/svg"
 width="1067.000000pt" height="1067.000000pt" viewBox="0 0 1067.000000 1067.000000"
 preserveAspectRatio="xMidYMid meet">
<metadata>
Created by potrace 1.14, written by Peter Selinger 2001-2017
</metadata>
<g transform="translate(0.000000,1067.000000) scale(0.100000,-0.100000)"
fill="#000000" stroke="none">
<path d="M2465 10659 c-930 -71 -1753 -623 -2177 -1459 -139 -274 -233 -588
-270 -905 -19 -161 -19 -5759 0 -5920 107 -903 646 -1679 1452 -2087 271 -137
598 -236 892 -267 135 -15 5811 -15 5946 0 876 95 1668 649 2074 1449 137 271
236 598 267 892 15 135 15 5811 0 5946 -31 294 -130 621 -267 892 -371 732
-1056 1255 -1856 1415 -255 51 -119 49 -3126 51 -1554 1 -2874 -2 -2935 -7z
m2496 -2051 c30 -23 36 -23 257 -20 321 5 577 -26 857 -102 l90 -25 42 25 41
24 90 -29 c50 -17 121 -45 159 -64 60 -31 70 -41 86 -80 17 -41 25 -49 110
-92 626 -325 1136 -877 1413 -1528 l42 -100 69 -42 68 -41 28 -85 c27 -79 71
-259 65 -264 -18 -13 -308 -159 -428 -215 -85 -40 -166 -81 -179 -91 -39 -31
-51 -24 -51 25 0 34 -6 52 -25 73 l-25 28 -29 -33 c-30 -35 -51 -91 -51 -139
0 -30 -3 -32 -204 -117 -113 -47 -207 -86 -210 -86 -2 0 -2 66 1 148 16 413
-86 802 -294 1127 -116 180 -302 382 -464 503 -400 299 -982 451 -1474 387
-648 -85 -1155 -457 -1465 -1075 -149 -298 -197 -492 -207 -845 -6 -190 -6
-190 -34 -226 -46 -59 -97 -175 -109 -252 -7 -40 -16 -94 -21 -120 -44 -232
76 -562 264 -726 20 -18 37 -36 37 -41 0 -4 -28 -12 -62 -18 -35 -6 -156 -27
-269 -46 -113 -19 -293 -47 -400 -61 -107 -14 -208 -27 -226 -29 -31 -4 -32
-4 -62 73 -32 86 -81 240 -106 340 -9 35 -32 174 -52 310 -31 216 -35 271 -35
446 0 125 6 255 16 347 17 139 17 148 0 173 -15 23 -16 34 -5 91 16 87 38 139
63 151 15 6 29 38 55 123 112 372 292 713 544 1031 105 133 344 373 477 478
342 270 757 476 1170 581 32 8 48 20 68 50 15 22 35 42 45 45 52 17 162 33
227 34 61 1 78 -3 103 -21z m464 -919 c140 -17 134 -28 -20 -44 -178 -19 -426
-94 -620 -189 -212 -104 -390 -231 -559 -401 -311 -313 -502 -707 -539 -1115
l-12 -135 -100 -6 c-58 -3 -116 -13 -139 -22 -71 -31 -70 -33 -62 111 15 277
53 455 138 654 198 461 507 796 911 988 175 83 363 138 562 163 68 9 356 6
440 -4z m485 -140 c81 -15 222 -84 361 -177 115 -78 244 -181 235 -189 -3 -3
-34 13 -69 35 -512 323 -1139 331 -1662 21 -537 -319 -861 -825 -901 -1407 -4
-56 -8 -102 -9 -102 -1 0 -24 10 -50 21 l-48 21 6 114 c15 284 133 606 315
864 82 114 269 311 377 395 276 215 602 359 915 404 41 6 89 13 105 15 56 8
359 -3 425 -15z m25 -264 c428 -96 718 -368 840 -790 42 -146 78 -395 57 -395
-5 0 -54 53 -108 118 -98 117 -348 373 -384 392 -19 10 -19 9 0 -32 26 -60 32
-141 17 -218 -11 -59 -10 -74 10 -165 33 -149 71 -363 90 -510 23 -187 28
-917 5 -956 -14 -24 -13 -31 1 -68 10 -23 17 -47 17 -55 0 -19 -175 -113 -315
-169 -267 -107 -456 -142 -725 -134 -191 6 -264 18 -430 73 -182 60 -363 162
-526 295 -68 55 -72 61 -87 121 -35 142 -51 352 -39 519 l7 107 -50 4 c-66 6
-116 31 -172 87 -158 158 -139 407 39 495 72 36 154 36 227 0 28 -15 54 -24
57 -21 3 2 8 21 11 41 5 34 2 41 -54 99 -125 130 -124 187 4 243 l54 24 -7 46
c-13 92 41 190 129 233 24 12 71 24 106 27 49 6 66 12 77 29 8 13 40 43 72 67
216 170 515 202 768 82 28 -14 40 -15 53 -6 40 29 79 46 116 52 40 6 39 6 -60
39 -216 70 -448 98 -683 81 -74 -5 -149 -12 -168 -16 -51 -9 -44 16 19 63 135
103 312 174 524 208 113 18 407 13 508 -10z m3785 -219 c241 -37 370 -104 370
-194 0 -112 -239 -347 -576 -565 -419 -272 -985 -564 -1684 -870 -266 -116
-799 -331 -805 -325 -3 2 7 33 21 69 14 35 40 118 58 184 l33 120 174 73 c792
332 1397 650 1623 853 149 135 157 256 19 310 -55 22 -72 23 -288 24 -126 0
-282 -4 -345 -8 l-115 -8 -78 151 c-43 83 -76 154 -74 157 6 5 291 27 547 42
255 15 995 6 1120 -13z m-5965 -1389 c138 -64 245 -178 331 -352 136 -278 119
-573 -42 -725 -50 -47 -139 -98 -151 -87 -2 3 11 26 30 51 57 74 79 145 84
271 7 167 -31 307 -129 473 -50 85 -162 193 -238 230 -109 53 -188 60 -310 25
-24 -6 -24 -6 -9 18 22 34 106 96 154 114 66 24 206 15 280 -18z m4585 -389
c-29 -388 -138 -800 -291 -1100 -19 -37 -33 -80 -34 -104 -2 -53 -48 -134 -75
-134 -23 0 -50 -47 -50 -85 0 -35 -29 -90 -111 -210 -78 -116 -100 -138 -150
-154 -22 -7 -58 -34 -86 -64 l-49 -52 -117 0 c-64 0 -117 3 -117 6 0 3 14 18
30 34 39 37 90 116 90 139 0 13 -4 15 -20 6 -33 -17 -135 -117 -165 -160 -16
-23 -60 -61 -99 -87 -133 -86 -245 -232 -312 -407 l-29 -76 -92 0 -92 0 -3
568 c-3 561 -4 568 -27 637 -23 72 -88 192 -115 215 -25 20 -19 34 36 75 146
111 337 336 439 518 l54 96 270 107 c149 59 375 152 503 207 128 54 235 98
237 96 2 -2 -1 -28 -7 -58 -13 -74 -4 -121 22 -114 49 13 130 148 130 218 0
28 24 55 49 55 10 0 56 17 102 39 l84 39 3 -52 c2 -28 -2 -117 -8 -198z
m-4799 192 c118 -36 218 -136 298 -297 51 -101 70 -173 78 -283 10 -156 -36
-276 -130 -334 -155 -96 -357 9 -491 256 -153 280 -106 600 98 664 57 18 75
17 147 -6z m-1451 -139 c0 -5 11 -86 25 -181 14 -95 25 -182 25 -194 0 -16
-17 -31 -67 -61 -121 -70 -326 -211 -403 -277 -226 -193 -210 -350 42 -405 89
-19 400 -21 588 -4 323 31 696 86 1120 167 206 40 240 44 279 34 24 -6 83 -10
131 -9 l88 2 73 -59 c41 -32 76 -59 78 -61 2 -1 -13 -24 -33 -52 -43 -58 -13
-49 -476 -141 -756 -150 -1458 -246 -2055 -281 -217 -13 -627 -7 -760 11 -196
26 -348 80 -399 141 -150 178 380 623 1464 1231 289 163 280 158 280 139z
m2263 -703 c309 -311 695 -453 1177 -435 303 12 560 83 823 229 60 33 111 58
113 55 8 -8 -95 -91 -181 -147 -153 -99 -324 -168 -525 -211 -137 -30 -444
-33 -585 -7 -335 63 -634 215 -895 456 l-74 68 18 47 c10 26 20 47 22 47 2 0
50 -46 107 -102z m-105 -164 c248 -219 556 -374 868 -434 59 -11 110 -23 113
-25 2 -3 -25 -5 -60 -5 -222 0 -530 80 -774 202 -149 75 -365 218 -365 243 0
5 15 20 34 33 18 12 43 34 56 47 13 14 25 25 27 25 2 0 48 -39 101 -86z m0
-294 c40 -23 71 -45 70 -49 -2 -3 -17 -33 -34 -66 -55 -107 -85 -231 -123
-510 -25 -178 -71 -628 -71 -685 0 -34 -4 -41 -25 -46 -58 -14 -55 -43 -55
554 0 585 2 606 51 705 27 53 98 149 107 144 4 -2 40 -23 80 -47z m2104 -15
c21 -28 50 -79 65 -115 l28 -65 0 -580 c0 -554 -1 -580 -18 -583 -10 -2 -29
-1 -41 2 -21 5 -23 13 -35 148 -16 195 -48 474 -72 643 -29 205 -63 346 -104
431 -20 42 -34 79 -30 82 20 20 142 91 155 89 8 -1 31 -25 52 -52z m-1851
-106 c185 -77 448 -133 675 -145 258 -13 564 41 806 142 32 13 61 24 66 24 14
0 67 -106 90 -180 47 -147 49 -184 30 -600 -10 -212 -20 -390 -22 -397 -4 -9
-18 -6 -54 12 -142 72 -344 74 -536 6 -32 -11 -63 -18 -68 -15 -6 4 -8 156 -6
388 l3 381 -22 3 c-14 2 -26 -4 -33 -17 -10 -20 -19 -21 -200 -21 -115 0 -191
4 -195 10 -9 15 -42 12 -49 -5 -3 -8 -11 -178 -17 -377 -6 -200 -13 -364 -14
-366 -1 -1 -18 5 -39 13 -75 32 -201 55 -296 55 -106 0 -187 -17 -268 -56 -29
-15 -55 -24 -57 -23 -2 2 -10 174 -19 381 -18 417 -14 486 39 644 28 82 80
174 99 174 8 0 46 -14 87 -31z m-586 -36 c-20 -77 -24 -200 -25 -670 l0 -513
-74 0 c-97 0 -128 21 -166 110 -45 108 -99 189 -178 272 -60 63 -92 87 -160
121 l-86 42 -133 0 c-146 0 -141 -3 -118 57 3 8 -24 50 -65 99 -65 78 -154
198 -194 260 l-16 26 112 17 c62 9 133 24 157 34 l44 16 26 -35 c90 -120 190
-193 256 -187 l36 3 -30 60 c-17 33 -51 84 -77 113 -25 29 -45 54 -43 56 2 1
117 24 254 50 138 26 297 58 355 70 140 31 134 31 125 -1z m1500 -474 c4 -6 4
-93 0 -195 l-7 -184 -52 0 c-64 0 -112 -27 -132 -75 -44 -107 22 -205 139
-205 l49 0 -4 -69 c-2 -39 -6 -73 -10 -76 -3 -4 -23 -2 -45 4 -78 22 -200 12
-285 -24 -17 -7 -18 9 -18 244 l0 251 130 0 c165 0 170 4 170 117 0 111 -3
113 -160 113 -85 0 -130 4 -138 12 -13 13 -17 80 -5 91 11 12 361 8 368 -4z
m-120 -209 l0 -55 -122 -3 -122 -3 -6 46 c-12 76 -12 76 127 73 l123 -3 0 -55z
m-2018 -90 c168 -83 311 -330 387 -670 16 -72 28 -105 37 -105 15 0 16 19 9
170 l-5 90 195 0 195 0 -4 -141 c-3 -120 -1 -142 12 -147 9 -3 20 0 25 6 10
13 38 257 48 427 4 58 10 111 14 119 9 16 15 -80 31 -442 l10 -248 -70 -65
c-128 -119 -201 -234 -223 -354 l-12 -60 -128 0 c-70 0 -128 2 -128 5 0 4 7
19 15 34 24 48 37 121 24 137 -16 19 -26 10 -50 -47 -26 -60 -99 -129 -164
-153 -25 -10 -48 -16 -51 -13 -3 2 9 26 25 52 38 59 67 147 82 245 28 182 -27
511 -130 786 -56 149 -112 243 -201 337 l-75 80 35 -6 c19 -4 63 -21 97 -37z
m4013 34 c0 -4 -23 -29 -50 -56 -161 -158 -296 -503 -341 -868 -26 -215 17
-449 99 -543 24 -27 8 -31 -45 -11 -64 24 -145 105 -165 164 -10 32 -20 45
-34 45 -16 0 -19 -7 -18 -46 0 -25 9 -64 21 -87 11 -23 18 -44 15 -47 -3 -3
-60 -5 -127 -5 l-122 0 -12 58 c-6 31 -23 81 -38 111 -33 65 -131 172 -207
226 -66 47 -61 1 -41 420 8 165 15 324 15 353 0 84 18 60 25 -35 8 -109 44
-448 51 -486 4 -19 11 -27 22 -25 15 3 17 21 17 143 l0 140 195 0 195 0 -2
-25 c-17 -242 -17 -242 2 -239 14 3 23 27 41 109 76 335 199 562 358 655 69
41 146 66 146 49z m-4223 -40 c60 -29 157 -128 193 -196 13 -26 22 -49 20 -51
-3 -2 -138 -44 -300 -91 -162 -48 -301 -89 -307 -91 -31 -10 -3 135 47 242 53
116 173 213 260 213 20 0 59 -12 87 -26z m4492 -3 c71 -36 131 -102 172 -189
35 -73 69 -217 54 -230 -15 -13 -615 169 -615 186 0 48 148 208 222 242 60 27
99 25 167 -9z m-2168 -131 c16 -9 19 -22 19 -79 0 -63 -2 -69 -26 -80 -64 -29
-136 41 -113 109 17 48 77 73 120 50z m-2039 -247 c42 -110 81 -245 71 -252
-4 -4 -78 -27 -163 -50 -463 -127 -552 -151 -569 -151 -16 0 -20 13 -31 98 -6
53 -10 126 -8 162 l3 65 320 97 c176 53 327 97 335 97 10 1 25 -23 42 -66z
m4118 -31 l325 -98 3 -59 c5 -91 -17 -255 -35 -262 -8 -3 -65 8 -127 25 -61
17 -221 61 -356 98 -135 37 -249 70 -253 74 -18 16 84 320 107 320 6 0 157
-44 336 -98z m-2685 49 c44 -11 101 -29 127 -40 l46 -20 4 -383 3 -383 50 -61
c63 -77 122 -177 136 -228 10 -36 8 -41 -15 -65 -22 -21 -36 -26 -79 -26 -58
0 -187 48 -187 70 0 7 7 29 16 50 8 21 14 57 12 83 -2 38 -7 47 -22 47 -14 0
-22 -12 -31 -48 -6 -26 -20 -56 -29 -66 -24 -26 -165 -77 -301 -108 -224 -52
-414 -29 -473 57 -65 96 23 289 203 441 33 29 63 57 67 63 3 6 2 104 -3 218
-6 114 -9 232 -7 263 l3 57 55 34 c30 18 80 40 110 48 79 21 219 20 315 -3z
m1220 -5 c28 -10 70 -30 94 -44 l43 -27 -6 -170 c-4 -93 -9 -224 -13 -291 l-6
-120 64 -46 c84 -60 190 -172 219 -233 31 -63 37 -132 16 -173 -64 -125 -354
-129 -681 -11 -95 34 -122 59 -132 121 -6 42 -29 60 -45 37 -13 -20 -3 -110
17 -148 l16 -32 -65 -30 c-36 -17 -89 -33 -118 -36 -48 -5 -57 -2 -86 22 -18
15 -32 35 -32 45 0 31 69 156 130 236 l60 78 0 377 c0 305 3 379 14 388 18 15
116 49 191 66 81 19 254 14 320 -9z m-665 -202 c43 -17 58 -51 18 -41 -13 3
-44 11 -70 18 -40 10 -57 10 -109 -5 -64 -17 -88 -14 -68 10 28 34 162 45 229
18z m-47 -104 c5 -4 6 -17 2 -29 -5 -18 -14 -21 -66 -21 -51 0 -59 3 -59 19 0
21 16 36 45 44 24 6 66 -1 78 -13z m-1834 -82 c14 -66 33 -260 26 -266 -3 -3
-148 -43 -322 -89 -175 -46 -326 -86 -336 -89 -14 -4 -25 11 -56 78 -49 106
-78 196 -65 207 5 4 142 45 304 90 162 46 322 91 355 101 33 10 65 19 72 19 6
1 16 -23 22 -51z m1641 -5 c0 -60 16 -131 42 -194 13 -30 13 -39 2 -60 -45
-81 16 -180 131 -210 70 -18 68 -16 42 -51 -14 -18 -39 -59 -57 -90 -17 -32
-33 -58 -35 -58 -2 0 -18 26 -35 58 -16 31 -57 93 -91 137 -59 78 -60 81 -55
130 3 28 6 128 6 223 l0 172 25 0 c24 0 25 -3 25 -57z m308 -22 c3 -84 -3
-117 -18 -90 -32 57 -33 173 -1 167 13 -3 17 -19 19 -77z m1834 14 c128 -36
292 -82 363 -102 72 -20 134 -40 139 -44 11 -10 -34 -150 -75 -231 -16 -32
-30 -58 -32 -58 -1 0 -153 40 -337 89 l-335 89 3 83 c3 103 25 239 37 239 3 0
109 -29 237 -65z m-1968 -1 c9 -4 16 -18 16 -34 0 -30 -6 -34 -71 -45 -36 -7
-37 -6 -41 30 -3 26 0 39 11 45 18 11 62 13 85 4z m50 -143 c19 -36 6 -50 -52
-58 -34 -5 -39 -2 -50 21 -17 37 -15 45 11 56 45 18 76 12 91 -19z m60 -104
c8 -14 8 -20 -4 -27 -20 -13 -57 -13 -81 0 -27 15 -24 26 14 38 42 13 57 11
71 -11z m-127 -83 c36 -19 60 -25 97 -23 34 2 51 -1 54 -10 10 -30 -56 -41
-119 -20 -34 12 -89 55 -89 71 0 12 4 11 57 -18z m-1780 -56 c-16 -131 -81
-247 -171 -303 -44 -27 -58 -30 -125 -30 -67 1 -84 5 -139 35 -64 34 -182 149
-182 176 0 8 12 17 27 20 15 4 149 40 298 80 148 39 276 72 284 73 11 1 12
-10 8 -51z m3769 -19 c148 -38 286 -75 307 -80 21 -6 37 -16 37 -24 0 -9 -31
-47 -69 -85 -81 -82 -153 -120 -245 -127 -53 -5 -70 -2 -112 20 -88 45 -148
127 -178 244 -15 56 -21 123 -12 123 2 0 125 -32 272 -71z"/>
<path d="M6285 8067 c-17 -13 -16 -15 16 -39 78 -59 247 -114 271 -90 27 27
-36 93 -120 125 -51 20 -141 22 -167 4z"/>
<path d="M3898 7975 c-68 -18 -135 -61 -154 -96 -8 -17 -13 -33 -10 -36 11
-11 143 -3 199 12 88 23 177 72 177 97 0 16 -69 38 -117 37 -26 0 -69 -7 -95
-14z"/>
<path d="M6091 7722 c-19 -9 -41 -27 -48 -38 -13 -20 -11 -23 20 -43 48 -30
122 -42 179 -29 26 5 50 13 52 16 2 4 -2 22 -10 40 -9 23 -26 39 -56 52 -54
24 -93 25 -137 2z"/>
<path d="M6977 7665 c-51 -18 -52 -19 -38 -64 25 -86 152 -189 255 -207 46 -8
56 3 56 63 0 56 -12 84 -56 133 -65 71 -148 100 -217 75z"/>
<path d="M3013 6329 c-52 -37 -77 -87 -70 -147 6 -55 32 -91 82 -115 46 -23
79 -16 115 23 77 83 45 230 -56 259 -24 7 -37 3 -71 -20z"/>
<path d="M2490 5948 c-96 -66 -107 -243 -20 -330 54 -55 75 -51 108 20 22 47
27 71 27 142 0 71 -4 93 -25 135 -14 28 -32 51 -41 53 -8 1 -30 -8 -49 -20z"/>
<path d="M5973 6822 c34 -72 35 -73 70 -67 18 4 51 2 75 -3 23 -6 42 -9 42 -7
0 5 -122 80 -167 104 l-42 21 22 -48z"/>
<path d="M5310 6801 c-35 -36 -40 -39 -82 -34 -55 6 -101 -15 -128 -60 -21
-34 -26 -102 -10 -127 8 -12 10 -9 10 13 0 41 25 93 54 112 26 17 72 17 139 0
24 -7 27 -5 27 19 0 15 11 38 25 51 33 34 78 33 110 -1 28 -30 33 -18 10 25
-17 33 -33 41 -82 41 -29 0 -44 -8 -73 -39z"/>
<path d="M6155 6462 c-16 -4 -14 -7 15 -17 42 -14 70 -61 70 -120 l1 -40 19
24 c24 28 26 71 5 112 -22 41 -59 55 -110 41z"/>
<path d="M5018 6419 c-49 -8 -137 -50 -163 -79 -14 -15 -8 -15 42 3 97 35 232
28 380 -19 34 -11 -42 48 -92 71 -60 28 -105 34 -167 24z"/>
<path d="M5773 6419 c-23 -4 -56 -15 -75 -25 -39 -19 -101 -65 -96 -70 2 -2
33 6 68 18 92 29 243 30 323 1 31 -12 57 -20 57 -18 0 2 -20 18 -45 35 -76 52
-157 73 -232 59z"/>
<path d="M5023 6271 c-123 -32 -233 -156 -268 -302 -28 -121 -11 -328 42 -507
14 -48 27 -95 30 -104 4 -14 -4 -17 -48 -20 -39 -2 -54 -7 -54 -18 0 -10 21
-17 75 -26 126 -19 210 -65 257 -140 42 -66 63 -58 36 13 -3 7 10 14 34 18 84
14 100 18 144 37 44 18 48 24 77 96 73 186 102 329 102 504 0 128 -17 201 -64
282 -32 55 -102 117 -164 146 -51 24 -147 34 -199 21z m186 -63 c88 -43 158
-133 187 -243 13 -48 19 -206 9 -217 -3 -2 -38 7 -77 20 -106 36 -294 42 -433
13 -112 -23 -115 -22 -115 44 0 120 44 242 113 313 95 98 207 123 316 70z
m-96 -486 c-3 -75 -54 -132 -118 -132 -29 0 -30 -9 -9 -80 30 -101 90 -170
166 -191 39 -10 79 -5 131 16 10 4 17 3 17 -5 0 -45 -67 -85 -163 -96 -53 -6
-58 -5 -116 34 -34 22 -74 43 -91 47 -19 4 -36 17 -44 33 -40 78 -102 346 -84
368 14 19 199 52 273 50 l40 -1 -2 -43z"/>
<path d="M4965 5890 c-98 -18 -135 -31 -135 -51 0 -23 11 -23 92 -2 80 20 278
20 363 -1 60 -15 82 -10 72 17 -12 31 -281 57 -392 37z"/>
<path d="M5703 6250 c-121 -61 -204 -185 -222 -335 -19 -156 17 -381 91 -574
l40 -103 52 -23 c28 -13 70 -26 93 -30 39 -6 42 -9 37 -31 -9 -36 16 -30 46
10 53 72 152 115 265 116 71 0 102 10 92 28 -4 5 -25 12 -48 15 -22 3 -42 7
-44 9 -2 1 10 42 26 90 56 173 81 387 60 514 -24 141 -111 264 -225 318 -81
39 -181 37 -263 -4z m242 -44 c60 -28 138 -109 165 -171 40 -93 52 -251 20
-249 -8 1 -51 10 -95 19 -117 26 -315 24 -419 -4 -44 -11 -81 -21 -84 -21 -2
0 -2 44 0 98 3 78 9 108 30 154 77 166 241 241 383 174z m-105 -435 c26 -49
-3 -161 -51 -195 -13 -9 -38 -16 -56 -16 -31 0 -32 -1 -27 -32 15 -86 106
-218 151 -218 28 0 21 -21 -16 -46 -34 -22 -47 -25 -84 -20 -78 12 -101 34
-137 133 -45 123 -70 228 -73 298 l-2 60 53 18 c47 15 145 32 209 36 13 0 27
-7 33 -18z"/>
<path d="M5688 5905 c-70 -14 -108 -30 -108 -45 0 -20 24 -21 88 -4 86 23 281
24 369 2 50 -12 65 -13 73 -3 40 49 -253 83 -422 50z"/>
<path d="M5461 5295 c-15 -26 -27 -35 -46 -35 -14 0 -41 -7 -60 -15 -62 -25
-69 -96 -19 -182 13 -23 24 -44 24 -46 0 -3 -89 -8 -197 -11 -109 -4 -210 -12
-225 -17 -58 -23 -57 -107 4 -221 92 -173 317 -257 608 -228 139 13 224 40
302 93 101 70 176 201 181 317 1 35 -3 46 -27 67 -27 23 -32 23 -125 18 -53
-4 -179 -7 -280 -8 l-185 -2 -29 41 c-35 50 -46 114 -23 133 10 8 56 16 119
20 l102 6 -48 19 c-46 18 -47 20 -41 52 8 44 -8 44 -35 -1z m383 -325 c-19
-19 -250 -51 -409 -57 -159 -6 -328 8 -341 28 -3 5 -4 9 -2 10 2 1 122 7 268
14 351 16 497 18 484 5z m-184 -291 c122 -15 128 -23 40 -51 -67 -20 -94 -23
-250 -23 -222 0 -254 12 -119 45 79 20 148 31 229 39 9 0 53 -4 100 -10z"/>
<path d="M6146 4744 c26 -102 -20 -164 -121 -164 l-45 0 6 -38 c5 -32 2 -43
-21 -70 -30 -35 -59 -40 -93 -16 -19 13 -22 13 -22 0 0 -23 41 -46 83 -46 30
0 45 7 67 30 16 17 30 43 32 58 2 22 11 28 47 39 56 16 88 46 103 95 13 43 -1
106 -28 129 -13 11 -14 9 -8 -17z"/>
<path d="M4758 4690 c-30 -41 -20 -106 21 -137 19 -15 77 -17 86 -3 3 6 -3 10
-13 10 -41 0 -66 34 -72 96 l-5 59 -17 -25z"/>
<path d="M8947 6964 c-163 -16 -434 -57 -556 -85 l-86 -19 140 5 c77 3 237 10
355 16 289 15 661 8 758 -16 89 -21 128 -50 118 -88 -3 -14 -31 -53 -61 -85
-91 -98 -268 -225 -598 -426 -70 -43 -126 -80 -124 -83 6 -5 166 66 312 139
328 164 531 320 566 438 15 49 7 81 -32 125 -36 40 -110 67 -234 84 -102 15
-388 12 -558 -5z"/>
<path d="M7674 4297 c-74 -81 -154 -260 -154 -344 0 -27 1 -27 43 -9 79 33
174 187 184 296 6 61 -1 110 -16 110 -5 0 -31 -24 -57 -53z"/>
<path d="M6974 4218 c-40 -35 -64 -82 -64 -123 0 -22 4 -25 34 -25 42 0 91 44
101 91 7 31 -10 89 -26 89 -5 0 -25 -15 -45 -32z"/>
<path d="M1690 4924 c-427 -223 -808 -484 -936 -641 -57 -71 -73 -102 -80
-155 -21 -170 221 -216 698 -132 163 28 409 87 385 92 -10 2 -106 -7 -215 -19
-253 -29 -653 -34 -716 -8 -22 8 -44 22 -49 31 -50 79 200 301 818 728 281
194 261 180 249 180 -5 0 -74 -34 -154 -76z"/>
</g>
</svg>
